<?xml version="1.0" encoding="utf-8"?>
<!-- Generator: Adobe Illustrator 16.0.0, SVG Export Plug-In . SVG Version: 6.00 Build 0)  -->
<!DOCTYPE svg PUBLIC "-//W3C//DTD SVG 1.1//EN" "http://www.w3.org/Graphics/SVG/1.1/DTD/svg11.dtd">
<svg version="1.1" id="Layer_1" xmlns="http://www.w3.org/2000/svg" xmlns:xlink="http://www.w3.org/1999/xlink" x="0px" y="0px"
	 width="822.047px" height="260.788px" viewBox="0 0 822.047 260.788" enable-background="new 0 0 822.047 260.788"
	 xml:space="preserve">
<g>
	<g>
		<linearGradient id="SVGID_1_" gradientUnits="userSpaceOnUse" x1="270.3638" y1="105.7451" x2="811.3257" y2="105.7451">
			<stop  offset="0" style="stop-color:#BE9A30"/>
			<stop  offset="1" style="stop-color:#FFDC74"/>
		</linearGradient>
		<path fill-rule="evenodd" clip-rule="evenodd" fill="url(#SVGID_1_)" d="M822.047,87.507c-5.543,0-11.086,0-16.781,0
			c0,15.213,0,30.309,0,45.475c-4.018,0-7.887,0-11.887,0c0-15.132,0-30.228,0-45.44c-5.664,0-11.197,0-16.828,0
			c0-3.04,0-5.965,0-9.033c15.191,0,30.344,0,45.496,0C822.047,81.507,822.047,84.507,822.047,87.507z"/>
		<linearGradient id="SVGID_2_" gradientUnits="userSpaceOnUse" x1="270.3672" y1="105.7822" x2="811.3223" y2="105.7822">
			<stop  offset="0" style="stop-color:#BE9A30"/>
			<stop  offset="1" style="stop-color:#FFDC74"/>
		</linearGradient>
		<path fill-rule="evenodd" clip-rule="evenodd" fill="url(#SVGID_2_)" d="M447.211,104.493c0.576,0.263,0.922,0.416,1.262,0.578
			c5.33,2.52,7.844,6.776,7.703,12.637c-0.186,7.805-5.109,13.414-13.059,14.737c-2.305,0.384-4.668,0.565-7.006,0.577
			c-11.281,0.061-22.563,0.029-33.844,0.027c-0.294,0-0.587-0.03-0.967-0.052c0-18.134,0-36.23,0-54.418
			c0.426-0.021,0.839-0.058,1.253-0.058c11.323-0.003,22.647-0.052,33.972,0.034c2.543,0.02,5.141,0.248,7.609,0.827
			c6.688,1.567,10.525,7.021,10.266,14.041c-0.174,4.729-2.244,8.245-6.363,10.553C447.823,104.097,447.62,104.237,447.211,104.493z
			 M413.116,123.962c0.313,0.023,0.561,0.068,0.807,0.055c8.945-0.501,17.891-1.004,26.834-1.529
			c0.35-0.021,0.732-0.202,1.027-0.411c3.217-2.288,3.385-9.981-1.475-11.735c-1.461-0.527-3.051-0.939-4.59-0.968
			c-7.252-0.135-14.508-0.12-21.762-0.149c-0.281-0.001-0.564,0.093-0.842,0.142C413.116,114.262,413.116,119.083,413.116,123.962z
			 M413.116,100.162c0.699,0,1.326,0.001,1.953,0c6.834-0.012,13.668,0.023,20.502-0.051c4.09-0.045,6.182-1.554,6.846-4.667
			c0.877-4.115-1.035-7.045-5.049-7.66c-1.094-0.169-2.209-0.27-3.314-0.274c-6.621-0.024-13.24-0.014-19.861-0.009
			c-0.363,0-0.727,0.058-1.076,0.088C413.116,91.816,413.116,95.912,413.116,100.162z"/>
		<linearGradient id="SVGID_3_" gradientUnits="userSpaceOnUse" x1="270.3696" y1="105.7808" x2="811.3239" y2="105.7808">
			<stop  offset="0" style="stop-color:#BE9A30"/>
			<stop  offset="1" style="stop-color:#FFDC74"/>
		</linearGradient>
		<path fill-rule="evenodd" clip-rule="evenodd" fill="url(#SVGID_3_)" d="M567.827,110.507c5.441,7.585,10.771,15.016,16.111,22.46
			c-0.072,0.009-0.371,0.079-0.672,0.08c-4.016,0.007-8.031-0.019-12.047,0.024c-0.799,0.009-1.162-0.317-1.59-0.948
			c-4.67-6.909-9.381-13.789-14.104-20.663c-0.189-0.275-0.584-0.577-0.885-0.579c-4.604-0.037-9.207-0.026-13.945-0.026
			c0,7.421,0,14.722,0,22.109c-4.002,0-7.869,0-11.846,0c0-18.086,0-36.173,0-54.385c0.387-0.023,0.795-0.069,1.203-0.069
			c10.895,0.003,21.789-0.084,32.682,0.076c3.207,0.047,6.504,0.438,9.59,1.29c6.223,1.719,9.887,6.802,10.193,13.278
			c0.191,4.027-0.256,7.879-2.807,11.194c-2.635,3.422-6.361,4.894-10.41,5.762c-0.25,0.054-0.502,0.097-0.75,0.159
			C568.387,110.31,568.229,110.374,567.827,110.507z M540.75,87.497c0,4.816,0,9.465,0,14.081c0.141,0.07,0.213,0.138,0.285,0.138
			c7.686-0.024,15.371,0.024,23.055-0.13c2.293-0.046,4.463-0.897,5.742-3.079c2.795-4.771-0.068-10.435-5.551-10.751
			c-4.215-0.245-8.447-0.209-12.672-0.252C548.03,87.467,544.448,87.497,540.75,87.497z"/>
		<linearGradient id="SVGID_4_" gradientUnits="userSpaceOnUse" x1="270.374" y1="105.7808" x2="811.3232" y2="105.7808">
			<stop  offset="0" style="stop-color:#BE9A30"/>
			<stop  offset="1" style="stop-color:#FFDC74"/>
		</linearGradient>
		<path fill-rule="evenodd" clip-rule="evenodd" fill="url(#SVGID_4_)" d="M679.944,134.042c-6.285-0.05-13.129-1.273-19.008-5.623
			c-8.555-6.329-12.293-15.021-11.219-25.514c1.416-13.861,11.016-23.229,24.773-24.93c6.852-0.847,13.617-0.687,20.039,1.949
			c10.396,4.268,16.221,12.104,17.303,23.405c1.195,12.479-6,24.188-17.594,28.509C689.905,133.455,685.395,134.03,679.944,134.042z
			 M661.668,105.689c-0.043,11.104,7.768,18.97,18.918,19.051c11.061,0.079,19.156-7.783,19.205-18.654
			c0.049-11.411-7.787-19.297-19.189-19.31C669.622,86.763,661.711,94.665,661.668,105.689z"/>
		<linearGradient id="SVGID_5_" gradientUnits="userSpaceOnUse" x1="270.3711" y1="105.8086" x2="811.3238" y2="105.8086">
			<stop  offset="0" style="stop-color:#BE9A30"/>
			<stop  offset="1" style="stop-color:#FFDC74"/>
		</linearGradient>
		<path fill-rule="evenodd" clip-rule="evenodd" fill="url(#SVGID_5_)" d="M641.622,85.057c-1.592,3.147-3.109,6.146-4.678,9.245
			c-0.691-0.488-1.27-0.909-1.859-1.313c-7.203-4.931-15.078-7.092-23.785-5.755c-1.998,0.308-3.918,0.879-5.533,2.184
			c-1.715,1.388-2.754,3.117-2.201,5.377c0.52,2.124,2.299,2.936,4.209,3.243c3.324,0.537,6.688,0.839,10.02,1.331
			c4.299,0.636,8.654,1.072,12.855,2.121c5.656,1.413,9.734,4.891,11.322,10.749c1.873,6.915-1.041,14.012-7.191,17.704
			c-3.697,2.219-7.789,3.256-12,3.78c-10.738,1.337-20.662-1.273-30.023-6.443c-0.516-0.285-0.992-0.641-1.559-1.01
			c1.418-3.225,2.807-6.379,4.25-9.661c3.188,2.849,6.73,4.882,10.646,6.207c5.98,2.021,12.061,2.726,18.242,0.957
			c2.045-0.584,3.885-1.564,5.24-3.276c2.643-3.331,1.547-6.905-2.59-7.771c-3.582-0.75-7.256-1.049-10.881-1.594
			c-4.379-0.658-8.844-1.015-13.104-2.14c-5.74-1.514-9.484-5.395-10.404-11.438c-1.158-7.588,2.289-13.897,9.195-17.253
			c4.939-2.398,10.234-2.886,15.613-2.727c8.064,0.238,15.424,3.021,22.576,6.489C640.514,84.321,640.997,84.674,641.622,85.057z"/>
		<linearGradient id="SVGID_6_" gradientUnits="userSpaceOnUse" x1="270.3647" y1="105.7676" x2="811.3264" y2="105.7676">
			<stop  offset="0" style="stop-color:#BE9A30"/>
			<stop  offset="1" style="stop-color:#FFDC74"/>
		</linearGradient>
		<path fill-rule="evenodd" clip-rule="evenodd" fill="url(#SVGID_6_)" d="M478.813,109.066c0,5.099,0,9.964,0,14.967
			c11.627,0,23.182,0,34.814,0c0,3.029,0,5.923,0,8.918c-15.553,0-31.074,0-46.672,0c0-18.11,0-36.205,0-54.366
			c15.24,0,30.432,0,45.705,0c0,2.923,0,5.815,0,8.857c-11.234,0-22.488,0-33.83,0c0,4.364,0,8.58,0,12.943
			c7.283,0,14.521,0,21.85,0c0,2.947,0,5.749,0,8.681C493.422,109.066,486.178,109.066,478.813,109.066z"/>
		<linearGradient id="SVGID_7_" gradientUnits="userSpaceOnUse" x1="270.3667" y1="105.7407" x2="811.3225" y2="105.7407">
			<stop  offset="0" style="stop-color:#BE9A30"/>
			<stop  offset="1" style="stop-color:#FFDC74"/>
		</linearGradient>
		<path fill-rule="evenodd" clip-rule="evenodd" fill="url(#SVGID_7_)" d="M330.997,88.296c-1.587,2.387-3.097,4.657-4.686,7.044
			c-2.834-2.617-6.003-4.502-9.432-5.972c-7.287-3.124-14.712-3.736-22.177-0.85c-7.626,2.949-11.944,10.558-11.365,18.706
			c0.625,8.784,7.332,15.901,16.76,17.102c9.751,1.241,18.228-1.46,25.457-8.126c0.148-0.138,0.312-0.26,0.556-0.462
			c1.722,2.59,3.395,5.106,5.125,7.71c-0.378,0.327-0.703,0.663-1.08,0.926c-5.529,3.858-11.304,7.358-17.979,8.668
			c-9.944,1.951-19.717,1.407-28.558-4.172c-8.123-5.128-12.05-12.789-12.415-22.356c-0.54-14.146,9.022-26.339,24.826-28.514
			c6.624-0.911,13.232-0.962,19.616,1.317c5.165,1.844,10.053,4.286,14.234,7.947C330.231,87.572,330.566,87.897,330.997,88.296z"/>
		<linearGradient id="SVGID_8_" gradientUnits="userSpaceOnUse" x1="270.3579" y1="105.7891" x2="811.3267" y2="105.7891">
			<stop  offset="0" style="stop-color:#BE9A30"/>
			<stop  offset="1" style="stop-color:#FFDC74"/>
		</linearGradient>
		<path fill-rule="evenodd" clip-rule="evenodd" fill="url(#SVGID_8_)" d="M768.51,78.604c0,2.935,0,5.866,0,8.919
			c-11.217,0-22.352,0-33.555,0c0,4.345,0,8.568,0,12.939c7.277,0,14.525,0,21.857,0c0,2.951,0,5.756,0,8.723
			c-7.256,0-14.494,0-21.893,0c0,8.009,0,15.862,0,23.789c-3.99,0-7.82,0-11.758,0c0-18.077,0-36.175,0-54.37
			C738.225,78.604,753.327,78.604,768.51,78.604z"/>
		<linearGradient id="SVGID_9_" gradientUnits="userSpaceOnUse" x1="270.3657" y1="105.7222" x2="811.3268" y2="105.7222">
			<stop  offset="0" style="stop-color:#BE9A30"/>
			<stop  offset="1" style="stop-color:#FFDC74"/>
		</linearGradient>
		<path fill-rule="evenodd" clip-rule="evenodd" fill="url(#SVGID_9_)" d="M358.756,132.962c0-0.594,0-1.101,0-1.606
			c0-6.554-0.021-13.107,0.021-19.66c0.007-1.049-0.283-1.871-0.892-2.705c-7.074-9.715-14.121-19.45-21.175-29.18
			c-0.25-0.345-0.493-0.695-0.84-1.184c0.418-0.049,0.722-0.115,1.025-0.115c4.229-0.007,8.459,0.017,12.688-0.025
			c0.785-0.007,1.213,0.269,1.634,0.911c4.24,6.475,8.515,12.928,12.781,19.384c0.229,0.348,0.479,0.683,0.796,1.134
			c0.331-0.455,0.609-0.813,0.863-1.187c4.343-6.407,8.691-12.81,13.01-19.233c0.473-0.703,0.959-1.026,1.849-1.014
			c3.929,0.057,7.859,0.025,11.79,0.025c0.364,0,0.729,0,1.305,0c-0.406,0.602-0.671,1.021-0.962,1.421
			c-7.075,9.769-14.164,19.524-21.204,29.318c-0.455,0.633-0.735,1.541-0.742,2.323c-0.058,6.639-0.033,13.278-0.033,19.917
			c0,0.464,0,0.928,0,1.476C366.7,132.962,362.834,132.962,358.756,132.962z"/>
		<g>
			<g>
				<g>
					<g>
						<path fill-rule="evenodd" clip-rule="evenodd" fill="#FFD041" d="M273.088,170.025c0-1.91,0.043-3.745-0.018-5.577
							c-0.031-0.925,0.203-1.314,1.203-1.264c2.464,0.128,4.936,0.101,7.397,0.253c2.435,0.149,4.012,1.611,4.858,3.793
							c1.16,2.989,1.104,6.045-0.108,9.006c-1.006,2.456-2.98,3.683-5.605,3.756c-2.219,0.062-4.44-0.016-6.659,0.03
							c-0.855,0.018-1.104-0.304-1.083-1.127c0.048-1.839,0.053-3.683-0.02-5.521c-0.014-0.365-0.452-1.016-0.696-1.017
							c-0.978-0.003-1.07-0.489-1.093-1.292c-0.029-1.037,0.627-0.922,1.266-0.937C272.656,170.126,272.78,170.084,273.088,170.025z
							 M275.725,170.145c1.39,0,2.543,0.034,3.692-0.012c0.768-0.03,0.946,0.325,0.928,1.008c-0.017,0.646,0.008,1.207-0.907,1.161
							c-0.938-0.046-1.884-0.047-2.818,0.024c-0.304,0.023-0.829,0.327-0.837,0.52c-0.067,1.646-0.039,3.295-0.039,5.009
							c1.545,0,2.869,0.041,4.189-0.01c2.029-0.077,3.478-1.03,4.178-2.997c0.697-1.954,0.753-3.955,0.204-5.931
							c-0.459-1.653-1.45-2.99-3.242-3.283c-1.46-0.238-2.967-0.239-4.453-0.237c-0.299,0.001-0.833,0.476-0.854,0.763
							C275.671,167.426,275.725,168.704,275.725,170.145z"/>
					</g>
				</g>
				<g>
					<g>
						<path fill-rule="evenodd" clip-rule="evenodd" fill="#FFD041" d="M740.897,179.754c-2.75,0.609-3.084,0.471-4.32-1.465
							c-0.783-1.227-1.619-2.418-2.377-3.66c-1.211-1.985-3.078-2.292-5.131-2.012c-0.279,0.038-0.662,0.695-0.678,1.078
							c-0.072,1.754-0.074,3.514-0.018,5.269c0.031,0.907-0.381,1.099-1.156,1.052c-0.713-0.043-1.482,0.169-1.477-1.015
							c0.029-4.927,0.016-9.855,0.008-14.783c0-0.658,0.172-1.049,0.943-1.024c3.068,0.098,6.141,0.081,9.203,0.265
							c1.979,0.117,3.275,1.48,3.51,3.306c0.324,2.523-0.455,4.181-2.369,5.014c-0.463,0.201-0.941,0.363-1.297,0.499
							C737.434,174.736,739.11,177.166,740.897,179.754z M731.407,170.509c1.18-0.118,2.375-0.158,3.535-0.378
							c1.184-0.224,1.818-1.104,1.922-2.27c0.086-0.98-0.871-2.069-2.102-2.24c-1.467-0.205-2.963-0.231-4.445-0.261
							c-1.957-0.038-1.957-0.008-1.959,1.928C728.356,170.402,728.356,170.402,731.407,170.509z"/>
					</g>
				</g>
				<g>
					<path fill-rule="evenodd" clip-rule="evenodd" fill="#FFD041" d="M761.997,168.263c0,1.181,0,2.361,0,3.543
						c-0.002,2.269-0.02,4.537,0.008,6.806c0.01,0.858-0.031,1.429-1.193,1.438c-1.217,0.01-1.26-0.566-1.254-1.494
						c0.031-4.623,0.002-9.246,0.033-13.869c0.004-0.487,0.264-1.392,0.412-1.394c0.91-0.011,1.969-0.534,2.686,0.55
						c1.836,2.782,3.697,5.549,5.551,8.321c0.656,0.982,1.318,1.964,2.273,2.879c0.029-0.391,0.082-0.78,0.084-1.171
						c0.006-3.082,0.012-6.165-0.002-9.246c-0.004-0.807-0.094-1.484,1.135-1.467c1.109,0.017,1.359,0.405,1.35,1.427
						c-0.043,4.579,0,9.16-0.043,13.74c-0.004,0.553-0.27,1.538-0.523,1.576c-0.934,0.136-1.959,0.445-2.705-0.729
						c-2.018-3.175-4.152-6.273-6.246-9.398c-0.371-0.555-0.768-1.094-1.154-1.639C762.27,168.178,762.133,168.221,761.997,168.263z
						"/>
				</g>
				<g>
					<path fill-rule="evenodd" clip-rule="evenodd" fill="#FFD041" d="M537.09,168.281c0,2.602,0,5.202,0,7.804
						c0,0.855-0.037,1.715,0.01,2.568c0.049,0.91-0.123,1.392-1.236,1.396c-1.139,0.006-1.217-0.514-1.211-1.406
						c0.029-4.622-0.002-9.246,0.033-13.869c0.006-0.519,0.281-1.476,0.453-1.48c0.904-0.027,1.943-0.522,2.668,0.582
						c2.229,3.395,4.502,6.76,6.762,10.135c0.25,0.372,0.529,0.724,1.125,1.017c0-0.484,0-0.968,0-1.453
						c0-3.039,0.029-6.079-0.018-9.117c-0.014-0.908,0.18-1.282,1.188-1.292c1.045-0.011,1.313,0.356,1.307,1.335
						c-0.035,4.665,0,9.332-0.041,13.998c-0.004,0.497-0.33,1.397-0.557,1.415c-0.855,0.063-1.836,0.5-2.535-0.572
						c-2.168-3.331-4.4-6.621-6.613-9.924c-0.295-0.44-0.615-0.863-0.926-1.295C537.362,168.175,537.227,168.228,537.09,168.281z"/>
				</g>
				<g>
					<path fill-rule="evenodd" clip-rule="evenodd" fill="#FFD041" d="M576.836,171.434c2.193,0,4.32-0.027,6.447,0.036
						c0.25,0.007,0.686,0.496,0.697,0.776c0.064,1.667,0.066,3.342,0.004,5.01c-0.014,0.35-0.307,0.799-0.605,1.012
						c-3.066,2.184-6.451,2.601-9.979,1.479c-4.285-1.363-5.553-5.576-5.059-9.433c0.436-3.384,1.955-6.016,5.494-6.972
						c2.279-0.618,4.549-0.59,6.75,0.357c1.602,0.688,2.584,1.949,3.012,3.604c0.076,0.295-0.268,0.972-0.512,1.022
						c-0.566,0.117-1.523,0.19-1.734-0.119c-1.91-2.813-3.547-3.592-6.352-2.8c-2.357,0.666-3.99,2.946-4.09,5.775
						c-0.084,2.431,0.449,4.645,2.676,6.012c2.348,1.441,4.705,1.075,7.061-0.132c1.314-0.674,0.953-1.808,0.871-2.805
						c-0.088-1.062-1.045-0.58-1.645-0.666c-0.461-0.065-0.939-0.013-1.408-0.013C576.534,173.577,576.534,173.577,576.836,171.434z
						"/>
				</g>
				<g>
					<g>
						<path fill-rule="evenodd" clip-rule="evenodd" fill="#FFD041" d="M323.68,180.264c-4.721,0.328-8.15-3.514-8.057-7.993
							c0.026-1.275,0.027-2.602,0.371-3.811c1.249-4.377,5.092-6.066,8.962-5.402c6.584,1.128,9.396,9.506,5.006,14.639
							C328.328,179.609,326.17,180.384,323.68,180.264z M329.512,171.6c-0.446-1.313-0.734-2.707-1.374-3.916
							c-0.956-1.81-3.338-2.82-5.084-2.467c-3.766,0.764-5.109,3.488-4.793,7.272c0.281,3.36,2.403,5.535,5.206,5.624
							C326.837,178.218,329.239,175.547,329.512,171.6z"/>
					</g>
				</g>
				<g>
					<g>
						<path fill-rule="evenodd" clip-rule="evenodd" fill="#FFD041" d="M390.501,171.567c0.369-1.476,0.529-3.048,1.15-4.408
							c1.552-3.394,4.755-4.521,8.197-4.167c3.728,0.382,6.347,2.662,6.856,6.058c0.273,1.817,0.296,3.785-0.098,5.568
							c-0.836,3.785-4.047,5.662-7.786,5.7c-3.797,0.039-7.094-2.273-7.896-6.266c-0.158-0.79-0.162-1.611-0.238-2.418
							C390.625,171.612,390.563,171.589,390.501,171.567z M404.63,171.58c-0.424-1.276-0.695-2.631-1.306-3.809
							c-0.978-1.883-3.344-2.918-5.159-2.543c-3.926,0.81-5.039,3.672-4.777,7.165c0.257,3.443,2.401,5.644,5.249,5.721
							C402.001,178.204,404.385,175.526,404.63,171.58z"/>
					</g>
				</g>
				<g>
					<path fill-rule="evenodd" clip-rule="evenodd" fill="#FFD041" d="M514.057,171.463c0-2.313,0.029-4.624-0.014-6.935
						c-0.018-0.943,0.197-1.376,1.277-1.353c3.287,0.07,6.574,0.042,9.861,0.014c0.768-0.007,1.182,0.138,1.193,1.038
						c0.012,0.942-0.393,1.15-1.236,1.137c-2.432-0.039-4.867,0.024-7.299-0.03c-1.021-0.022-1.311,0.362-1.316,1.35
						c-0.021,3.461-0.053,3.461,3.371,3.461c1.58,0,3.16,0.029,4.74-0.013c0.775-0.021,1.158,0.141,1.166,1.044
						c0.01,0.947-0.375,1.146-1.219,1.132c-2.262-0.042-4.525,0.017-6.787-0.027c-0.936-0.019-1.318,0.308-1.266,1.263
						c0.059,1.023,0.063,2.057,0,3.08c-0.059,0.942,0.264,1.275,1.232,1.254c2.604-0.058,5.209,0.002,7.813-0.031
						c0.807-0.01,1.244,0.105,1.248,1.095c0.004,1.021-0.496,1.08-1.271,1.076c-3.416-0.021-6.832-0.037-10.246,0.008
						c-0.943,0.013-1.281-0.287-1.264-1.243C514.09,176.343,514.059,173.903,514.057,171.463z"/>
				</g>
				<g>
					<path fill-rule="evenodd" clip-rule="evenodd" fill="#FFD041" d="M795.502,171.585c0,2.397-0.043,4.798,0.021,7.193
						c0.029,1.091-0.467,1.248-1.393,1.257c-0.932,0.008-1.291-0.243-1.254-1.231c0.07-1.882-0.01-3.769,0.031-5.652
						c0.018-0.84-0.313-1.136-1.129-1.123c-2.049,0.032-4.1,0.033-6.15,0c-0.842-0.013-1.119,0.347-1.105,1.155
						c0.031,1.928-0.031,3.855,0.023,5.781c0.025,0.903-0.383,1.085-1.158,1.054c-0.713-0.028-1.357,0.056-1.352-1.011
						c0.029-4.924,0.031-9.85-0.004-14.773c-0.006-1.03,0.557-1.023,1.311-1.053c0.855-0.032,1.248,0.19,1.205,1.136
						c-0.068,1.453,0.016,2.912-0.029,4.367c-0.023,0.841,0.188,1.247,1.137,1.22c2.049-0.06,4.1-0.05,6.148-0.003
						c0.838,0.019,1.131-0.27,1.104-1.106c-0.047-1.497,0.041-2.999-0.029-4.495c-0.047-0.974,0.395-1.143,1.221-1.114
						c0.768,0.026,1.443-0.057,1.418,1.077C795.465,166.704,795.502,169.145,795.502,171.585z"/>
				</g>
				<g>
					<path fill-rule="evenodd" clip-rule="evenodd" fill="#FFD041" d="M462.375,171.608c0,2.398-0.045,4.798,0.021,7.194
						c0.029,1.117-0.518,1.209-1.414,1.232c-0.965,0.024-1.268-0.296-1.232-1.254c0.066-1.839-0.01-3.683,0.031-5.522
						c0.02-0.854-0.23-1.253-1.152-1.232c-2.006,0.044-4.016,0.05-6.021-0.003c-0.992-0.026-1.236,0.411-1.217,1.313
						c0.045,1.883-0.027,3.769,0.029,5.651c0.027,0.932-0.434,1.047-1.182,1.032c-0.734-0.015-1.336,0.012-1.33-1.034
						c0.031-4.924,0.033-9.85,0-14.773c-0.008-1.054,0.6-1.008,1.33-1.024c0.748-0.017,1.217,0.089,1.182,1.024
						c-0.061,1.539,0.01,3.083-0.023,4.624c-0.016,0.753,0.225,1.078,1.027,1.063c2.135-0.041,4.27-0.036,6.404-0.004
						c0.744,0.012,0.959-0.301,0.947-0.993c-0.027-1.585,0.037-3.171-0.02-4.753c-0.037-1.006,0.561-0.965,1.238-0.953
						c0.688,0.012,1.402-0.132,1.389,0.961C462.352,166.641,462.374,169.125,462.375,171.608z"/>
				</g>
				<g>
					<path fill-rule="evenodd" clip-rule="evenodd" fill="#FFD041" d="M473.34,169.062c0.113,2.045,0.104,4.106,0.379,6.13
						c0.262,1.912,1.703,2.898,3.762,2.923c2.332,0.028,3.617-0.845,4.07-2.865c0.176-0.784,0.252-1.604,0.262-2.411
						c0.029-2.866,0.041-5.735-0.006-8.603c-0.014-0.905,0.377-1.096,1.156-1.043c0.707,0.048,1.506-0.185,1.475,1.005
						c-0.094,3.72-0.074,7.443-0.24,11.159c-0.107,2.431-1.535,4.228-3.896,4.6c-1.85,0.291-3.828,0.265-5.672-0.059
						c-2.096-0.367-3.363-2.032-3.492-4.101c-0.244-3.923-0.225-7.864-0.277-11.799c-0.016-1.148,0.92-0.724,1.521-0.79
						c0.604-0.066,1.094,0.004,1.074,0.841c-0.037,1.668-0.01,3.338-0.01,5.008C473.411,169.058,473.375,169.06,473.34,169.062z"/>
				</g>
				<g>
					<g>
						<path fill-rule="evenodd" clip-rule="evenodd" fill="#FFD041" d="M674.432,171.503c0-2.399,0.002-4.799-0.004-7.198
							c-0.002-0.583-0.041-1.136,0.818-1.107c2.811,0.092,5.627,0.061,8.43,0.26c2.295,0.163,3.703,1.76,3.895,4.041
							c0.232,2.77-0.957,4.879-3.17,5.495c-0.73,0.202-1.508,0.286-2.268,0.314c-1.365,0.051-2.734,0.034-4.102,0.014
							c-0.707-0.011-0.992,0.277-0.979,0.993c0.029,1.585-0.035,3.172,0.02,4.756c0.041,1.149-0.734,0.918-1.383,0.934
							c-0.643,0.016-1.293,0.121-1.273-0.917C674.463,176.56,674.432,174.032,674.432,171.503z M677.075,171.294
							c2.127-0.136,4.045-0.117,5.91-0.427c1.352-0.226,2.021-1.442,1.943-2.774c-0.072-1.268-0.824-2.316-2.152-2.486
							c-1.674-0.216-3.381-0.188-5.074-0.2c-0.207-0.001-0.592,0.399-0.598,0.624C677.051,167.682,677.075,169.337,677.075,171.294z
							"/>
					</g>
				</g>
				<g>
					<g>
						<path fill-rule="evenodd" clip-rule="evenodd" fill="#FFD041" d="M618.129,180.007c-0.762,0-1.313-0.038-1.855,0.01
							c-0.748,0.064-1.174-0.196-1.418-0.946c-0.357-1.094-0.855-2.141-1.244-3.226c-0.25-0.696-0.641-1.019-1.414-0.992
							c-1.494,0.049-2.994-0.057-4.48,0.058c-0.459,0.035-1.027,0.486-1.281,0.908c-0.412,0.684-0.605,1.499-0.889,2.26
							c-0.805,2.169-0.805,2.169-3.389,1.787c0.107-0.361,0.184-0.717,0.314-1.05c1.891-4.809,3.795-9.612,5.676-14.425
							c0.279-0.713,0.521-1.282,1.494-1.218c0.885,0.059,1.572,0.042,1.998,1.091c2.008,4.947,4.109,9.855,6.174,14.778
							C617.911,179.27,617.969,179.511,618.129,180.007z M612.313,172.633c-0.783-2.021-1.51-3.891-2.234-5.762
							c-0.102,0.006-0.203,0.011-0.305,0.016c-0.709,1.874-1.42,3.748-2.174,5.746C609.239,172.633,610.663,172.633,612.313,172.633
							z"/>
					</g>
				</g>
				<g>
					<g>
						<path fill-rule="evenodd" clip-rule="evenodd" fill="#FFD041" d="M667.756,179.918c-0.342,0.044-0.506,0.078-0.672,0.084
							c-2.156,0.08-2.156,0.078-2.92-1.907c-1.244-3.229-1.244-3.263-4.738-3.221c-3.52,0.043-2.631-0.599-3.971,2.813
							c-0.031,0.079-0.074,0.153-0.104,0.233c-0.834,2.277-0.834,2.277-3.412,1.968c0.1-0.359,0.164-0.713,0.291-1.042
							c1.879-4.815,3.775-9.623,5.639-14.445c0.303-0.78,0.602-1.271,1.611-1.244c0.986,0.025,1.531,0.262,1.918,1.22
							c1.939,4.791,3.945,9.556,5.924,14.331C667.467,179.055,667.577,179.417,667.756,179.918z M659.79,166.863
							c-0.1,0.011-0.197,0.021-0.297,0.031c-0.697,1.873-1.395,3.747-2.133,5.726c1.627,0,3.037,0,4.648,0
							C661.229,170.599,660.51,168.731,659.79,166.863z"/>
					</g>
				</g>
				<g>
					<path fill-rule="evenodd" clip-rule="evenodd" fill="#FFD041" d="M440.643,167.946c-2.121,0.752-2.123,0.753-3.246-0.902
						c-0.922-1.361-2.273-2.009-3.836-1.89c-1.988,0.149-3.617,1.108-4.398,3.042c-0.914,2.269-0.92,4.611,0.002,6.88
						c0.801,1.976,2.393,2.989,4.496,3.02c2.096,0.031,3.531-1.054,4.352-2.978c0.484-1.137,1.559-1.402,2.564-0.586
						c0.188,0.152,0.268,0.602,0.209,0.871c-0.586,2.66-3.18,4.785-5.916,4.849c-1.066,0.026-2.154,0.082-3.193-0.096
						c-2.311-0.392-3.984-1.727-4.871-3.909c-1.277-3.146-1.453-6.356,0.111-9.438c1.598-3.152,4.506-4.023,7.762-3.832
						c2.783,0.162,4.822,1.56,5.813,4.274C440.561,167.444,440.581,167.655,440.643,167.946z"/>
				</g>
				<g>
					<g>
						<path fill-rule="evenodd" clip-rule="evenodd" fill="#FFD041" d="M309.304,179.999c-0.865,0-1.593,0.08-2.286-0.036
							c-0.322-0.054-0.697-0.44-0.846-0.768c-0.49-1.088-0.915-2.209-1.313-3.335c-0.246-0.695-0.628-1.032-1.405-1.007
							c-1.45,0.048-2.903,0.042-4.354,0.002c-0.75-0.021-1.189,0.227-1.409,0.978c-0.226,0.777-0.564,1.521-0.848,2.281
							c-0.805,2.158-0.855,2.188-3.374,1.723c0.163-0.488,0.3-0.968,0.48-1.432c1.836-4.69,3.694-9.373,5.505-14.074
							c0.296-0.769,0.616-1.21,1.537-1.154c0.842,0.051,1.482,0.031,1.889,1.043c1.955,4.873,4.011,9.706,6.024,14.557
							C309.046,179.115,309.136,179.475,309.304,179.999z M303.571,172.64c-0.778-2.029-1.499-3.91-2.221-5.791
							c-0.109,0.028-0.219,0.056-0.329,0.084c-0.687,1.868-1.374,3.736-2.099,5.707C300.569,172.64,301.952,172.64,303.571,172.64z"
							/>
					</g>
				</g>
				<g>
					<g>
						<path fill-rule="evenodd" clip-rule="evenodd" fill="#FFD041" d="M384.668,179.931c-0.387,0.036-0.598,0.04-0.803,0.077
							c-1.48,0.266-2.272-0.275-2.795-1.781c-1.18-3.394-1.272-3.386-4.876-3.354c-3.424,0.028-2.54-0.471-3.748,2.563
							c-0.063,0.158-0.117,0.321-0.177,0.481c-0.848,2.269-0.848,2.269-3.473,1.972c0.139-0.41,0.251-0.79,0.395-1.158
							c1.86-4.775,3.737-9.544,5.578-14.326c0.304-0.791,0.615-1.265,1.616-1.246c0.986,0.019,1.526,0.261,1.916,1.221
							c1.911,4.71,3.896,9.39,5.847,14.082C384.327,178.887,384.458,179.333,384.668,179.931z M378.921,172.639
							c-0.78-2.019-1.503-3.892-2.226-5.765c-0.103,0.009-0.205,0.019-0.308,0.027c-0.696,1.873-1.393,3.746-2.133,5.737
							C375.91,172.639,377.3,172.639,378.921,172.639z"/>
					</g>
				</g>
				<g>
					<path fill-rule="evenodd" clip-rule="evenodd" fill="#FFD041" d="M491.428,163.403c2.748-0.519,2.938-0.438,4.229,1.548
						c1.18,1.818,2.365,3.634,3.65,5.606c1.336-2.031,2.57-3.914,3.811-5.794c1.199-1.813,1.459-1.906,3.941-1.351
						c-0.27,0.424-0.5,0.81-0.754,1.178c-1.742,2.534-3.525,5.042-5.213,7.612c-0.393,0.597-0.623,1.392-0.668,2.112
						c-0.1,1.577-0.07,3.165-0.02,4.746c0.033,1.002-0.578,0.942-1.25,0.954c-0.703,0.012-1.279-0.02-1.225-0.985
						c0.051-0.938-0.084-1.893,0.025-2.821c0.26-2.172-0.449-3.954-1.736-5.685C494.547,168.273,493.075,165.872,491.428,163.403z"
						/>
				</g>
				<g>
					<path fill-rule="evenodd" clip-rule="evenodd" fill="#FFD041" d="M355.383,172.651c-0.002-2.055-0.023-4.107,0.009-6.161
						c0.014-0.816-0.279-1.171-1.114-1.145c-1.193,0.036-2.391-0.022-3.584,0.014c-0.798,0.023-0.908-0.435-0.898-1.063
						c0.011-0.59,0.019-1.105,0.855-1.102c3.968,0.021,7.937,0.024,11.904-0.004c0.81-0.005,0.88,0.413,0.888,1.048
						c0.009,0.688-0.073,1.175-0.947,1.122c-0.851-0.05-1.706-0.01-2.56-0.009c-2.063,0.002-2.064,0.002-2.065,2.136
						c-0.003,3.765-0.015,7.529,0.008,11.294c0.005,0.817-0.163,1.241-1.123,1.257c-1.033,0.018-1.44-0.25-1.395-1.355
						C355.444,176.674,355.384,174.662,355.383,172.651z"/>
				</g>
				<g>
					<path fill-rule="evenodd" clip-rule="evenodd" fill="#FFD041" d="M710.565,172.633c-0.002-2.054-0.025-4.107,0.01-6.161
						c0.014-0.831-0.313-1.153-1.133-1.127c-1.15,0.035-2.305-0.032-3.455,0.018c-0.822,0.035-1.021-0.357-1.018-1.084
						c0.002-0.715,0.174-1.099,1.008-1.091c3.883,0.033,7.766,0.033,11.648-0.001c0.822-0.007,1.014,0.325,1.004,1.068
						c-0.008,0.703-0.113,1.149-0.969,1.106c-1.021-0.052-2.053,0.058-3.07-0.028c-1.184-0.1-1.57,0.361-1.557,1.527
						c0.049,3.979,0.004,7.959,0.027,11.938c0.006,0.835-0.201,1.219-1.141,1.24c-1.055,0.024-1.42-0.291-1.377-1.373
						C710.622,176.658,710.567,174.644,710.565,172.633z"/>
				</g>
				<g>
					<path fill-rule="evenodd" clip-rule="evenodd" fill="#FFD041" d="M635.17,171.503c0-2.354,0.035-4.708-0.018-7.06
						c-0.021-0.925,0.215-1.269,1.205-1.278c1.033-0.011,1.322,0.337,1.313,1.326c-0.039,3.936,0.027,7.874-0.039,11.81
						c-0.021,1.229,0.342,1.649,1.588,1.584c1.916-0.101,3.842,0.005,5.76-0.041c0.82-0.02,1.027,0.344,1.025,1.075
						c-0.004,0.711-0.166,1.11-1.002,1.101c-2.945-0.035-5.889-0.034-8.834-0.001c-0.807,0.01-1.018-0.323-1.01-1.07
						C635.19,176.467,635.17,173.985,635.17,171.503z"/>
				</g>
				<g>
					<path fill-rule="evenodd" clip-rule="evenodd" fill="#FFD041" d="M750.924,171.685c0,2.398-0.049,4.797,0.023,7.193
						c0.033,1.082-0.5,1.158-1.33,1.145c-0.797-0.013-1.365-0.007-1.352-1.12c0.053-4.881,0.049-9.764,0.002-14.644
						c-0.01-1.023,0.486-1.099,1.262-1.066c0.727,0.03,1.449-0.149,1.416,1.043C750.875,166.717,750.924,169.202,750.924,171.685z"
						/>
				</g>
				<g>
					<path fill-rule="evenodd" clip-rule="evenodd" fill="#FFD041" d="M595.045,171.601c0,2.439-0.035,4.879,0.018,7.317
						c0.021,0.979-0.441,1.107-1.25,1.108c-0.813,0.001-1.248-0.134-1.238-1.111c0.041-4.877,0.041-9.757-0.002-14.634
						c-0.008-0.987,0.436-1.1,1.244-1.101c0.813-0.002,1.27,0.122,1.246,1.104C595.008,166.722,595.045,169.162,595.045,171.601z"/>
				</g>
				<path fill-rule="evenodd" clip-rule="evenodd" fill="#FFD041" d="M524.131,162.153c-1.627,0.166-2.971,0.482-3.717-1.563
					c-0.785,1.971-2.148,1.794-3.832,1.553c1.117-1.127,1.455-2.691,3.061-3.049C522.073,158.554,522.756,160.603,524.131,162.153z"
					/>
				<path fill-rule="evenodd" clip-rule="evenodd" fill="#FFD041" d="M751.362,162.125c-2.615,0.781-3.061-1.57-4.418-2.72
					C749.395,158.459,750.53,159.178,751.362,162.125z"/>
				<path fill-rule="evenodd" clip-rule="evenodd" fill="#FFD041" d="M302.864,162.108c-2.627,0.813-3.092-1.538-4.439-2.682
					C300.796,158.414,301.656,158.942,302.864,162.108z"/>
				<path fill-rule="evenodd" clip-rule="evenodd" fill="#FFD041" d="M656.436,162.566c1.746-1.644,4.818-1.608,6.475,0
					C660.786,162.566,658.635,162.566,656.436,162.566z"/>
				<path fill-rule="evenodd" clip-rule="evenodd" fill="#FFD041" d="M376.479,181.214c0.783-0.087,1.355-0.047,1.359,1.059
					c0.003,1.117-0.6,1.086-1.369,1.087c-0.773,0.002-1.364,0.023-1.363-1.091C375.108,181.151,375.694,181.136,376.479,181.214z"/>
				<path fill-rule="evenodd" clip-rule="evenodd" fill="#FFD041" d="M659.446,183.343c-0.818,0.139-1.221-0.129-1.227-1.143
					c-0.008-1.201,0.742-0.952,1.438-1.01c0.869-0.072,1.303,0.115,1.299,1.151C660.95,183.531,660.223,183.35,659.446,183.343z"/>
			</g>
		</g>
	</g>
	<linearGradient id="SVGID_10_" gradientUnits="userSpaceOnUse" x1="4.882813e-004" y1="130.394" x2="243.6265" y2="130.394">
		<stop  offset="0" style="stop-color:#BE9A30"/>
		<stop  offset="1" style="stop-color:#FFDC74"/>
	</linearGradient>
	<path fill="url(#SVGID_10_)" d="M243.626,64.668L121.684,0L0,64.669v38.627l14.936,7.955L0,119.18v77.72l121.431,63.888
		l122.195-64.663v-76.932l-15.046-8.157l15.046-7.995V64.668z M121.686,4.947l115.105,61.042l-115.105,61.289L6.827,65.989
		L121.686,4.947z M4.36,69.623l115.146,61.442v30.93L4.36,100.669V69.623z M4.36,124.131l114.889,61.189v69.382L4.36,194.256
		V124.131z M123.609,254.693v-69.368l115.658-61.204v69.368L123.609,254.693z M236.821,120.472l-115.389,61.062l-114.6-61.035
		l12.755-6.77l101.84,54.239l102.523-54.474L236.821,120.472z M123.865,161.726v-30.659L239.267,69.62v30.791L123.865,161.726z"/>
</g>
</svg>
